<svg xmlns="http://www.w3.org/2000/svg" version="1.1" xmlns:xlink="http://www.w3.org/1999/xlink" width="512" height="512" x="0" y="0" viewBox="0 0 511.447 511.447" style="enable-background:new 0 0 512 512" xml:space="preserve" class=""><g><path d="M36.418 67.61h350v350h-350z" style="" transform="rotate(-80.003 211.406 242.613)" fill="#ffffff" data-original="#ffffff"></path><linearGradient id="a" x1="305.542" x2="305.542" y1="63.808" y2="489.881" gradientUnits="userSpaceOnUse"><stop offset="0" style="stop-color:#A7ACFF" stop-color="#a7acff"></stop><stop offset="1" style="stop-color:#FFC8FF" stop-color="#ffc8ff"></stop></linearGradient><path d="m198.275 489.881-90.587-338.074 328.415-87.999 67.293 251.141-63.639 110.227z" style="fill:url(#a);" fill=""></path><path d="M360.688 49.881c0-16.569-13.431-30-30-30-14.156 0-26.015 9.808-29.17 22.997-12.268 5.44-20.83 17.718-20.83 32.003 0 19.33 15.67 35 35 35s35-15.67 35-35c0-.861-.042-1.711-.103-2.556 6.195-5.496 10.103-13.512 10.103-22.444z" style="" fill="#ffffff" data-original="#ffffff"></path><linearGradient id="b" x1="255.724" x2="255.724" y1="12.381" y2="499.066" gradientUnits="userSpaceOnUse"><stop offset="0" style="stop-color:#004EA6" stop-color="#004ea6"></stop><stop offset="1" style="stop-color:#CA42B2" stop-color="#ca42b2"></stop></linearGradient><path d="m348.418 87.311 87.68-23.5 67.3 251.14-63.64 110.23-241.48 64.7-90.59-338.07 185.87-49.81M188.083 316.615l260.8-69.881M198.436 355.252l260.8-69.881m44.16 29.578-86.933 23.294 23.294 86.933m-88.095-247.637c-4.288-16.004-20.738-25.501-36.742-21.213l-9.659 2.588 15.529 57.956 9.659-2.588c16.003-4.289 25.501-20.739 21.213-36.743zm-168.109 13.986 17.6 65.683m-46.577-57.919 57.956-15.529m184.838-28.822c-10.669 2.859-17.001 13.826-14.142 24.495s13.826 17.001 24.495 14.142c10.669-2.859 17.001-13.826 14.142-24.495-2.859-10.669-13.826-17-24.495-14.142zm-154.548 41.411c-10.669 2.859-17.001 13.826-14.142 24.495 2.859 10.669 13.826 17.001 24.495 14.142 10.669-2.859 17.001-13.826 14.142-24.495s-13.826-17-24.495-14.142zM344.448 88.371l3.29.58M280.768 77.141l-211.3-37.26-60.78 344.68 169.37 29.87m152.63-394.55c-16.569 0-30 13.431-30 30s13.431 30 30 30 30-13.431 30-30-13.431-30-30-30zm-29.169 22.997c-12.268 5.44-20.83 17.718-20.83 32.003 0 19.33 15.67 35 35 35s35-15.67 35-35c0-.861-.042-1.711-.103-2.556m-52.898 34.556-13 28" style="fill:none;stroke:url(#b);stroke-width:15;stroke-miterlimit:10;" fill="none" stroke-width="15" stroke-miterlimit="10"></path></g></svg>